<?xml version="1.0" encoding="UTF-8"?>
<svg width="47px" height="48px" viewBox="0 0 47 48" version="1.1" xmlns="http://www.w3.org/2000/svg" xmlns:xlink="http://www.w3.org/1999/xlink">
    <title>img-7-11</title>
    <g id="Portfolio-Details" stroke="none" stroke-width="1" fill="none" fill-rule="evenodd">
        <g id="019-Portfolio-Details-(masthead---boxed---horizontal)" transform="translate(-1101.000000, -7372.000000)" fill="#555555" fill-rule="nonzero">
            <g id="section-FEATURES" transform="translate(400.000000, 7312.000000)">
                <g id="content" transform="translate(610.000000, 0.000000)">
                    <g id="img-7-11" transform="translate(91.000000, 60.000000)">
                        <path d="M28.75,17.5 C28.06,17.5 27.5,16.94 27.5,16.25 C27.5,12.805 24.695,10 21.25,10 C20.56,10 20,9.44 20,8.75 C20,8.06 20.56,7.5 21.25,7.5 C24.695,7.5 27.5,4.695 27.5,1.25 C27.5,0.56 28.06,0 28.75,0 C29.44,0 30,0.56 30,1.25 C30,4.695 32.805,7.5 36.25,7.5 C36.94,7.5 37.5,8.06 37.5,8.75 C37.5,9.44 36.94,10 36.25,10 C32.805,10 30,12.805 30,16.25 C30,16.94 29.44,17.5 28.75,17.5 Z M25.7525,8.75 C26.9775,9.49 28.01,10.52 28.75,11.7475 C29.49,10.5225 30.52,9.49 31.7475,8.75 C30.5225,8.01 29.49,6.98 28.75,5.7525 C28.01,6.9775 26.98,8.01 25.7525,8.75 Z" id="Shape"></path>
                        <path d="M3.75,25 C3.06,25 2.5,24.44 2.5,23.75 C2.5,23.06 1.94,22.5 1.25,22.5 C0.56,22.5 0,21.94 0,21.25 C0,20.56 0.56,20 1.25,20 C1.94,20 2.5,19.44 2.5,18.75 C2.5,18.06 3.06,17.5 3.75,17.5 C4.44,17.5 5,18.06 5,18.75 C5,19.44 5.56,20 6.25,20 C6.94,20 7.5,20.56 7.5,21.25 C7.5,21.94 6.94,22.5 6.25,22.5 C5.56,22.5 5,23.06 5,23.75 C5,24.44 4.44,25 3.75,25 Z" id="Path"></path>
                        <path d="M45.3675,39.8475 L18.9025,13.3825 C18.195,12.675 17.255,12.2875 16.25,12.2875 C15.245,12.2875 14.305,12.6775 13.5975,13.3825 L12.1325,14.8475 C11.425,15.555 11.0375,16.495 11.0375,17.5 C11.0375,18.505 11.4275,19.445 12.1325,20.1525 L38.5975,46.6175 C39.305,47.325 40.245,47.7125 41.25,47.7125 C42.255,47.7125 43.195,47.3225 43.9025,46.6175 L45.3675,45.1525 C46.075,44.445 46.4625,43.505 46.4625,42.5 C46.4625,41.495 46.0725,40.555 45.3675,39.8475 Z M13.9025,16.615 L15.3675,15.15 C15.6025,14.915 15.915,14.7875 16.2525,14.7875 C16.59,14.7875 16.9025,14.9175 17.1375,15.15 L20.735,18.7475 L17.5025,21.98 L13.905,18.3825 C13.4175,17.895 13.4175,17.1025 13.905,16.615 L13.9025,16.615 Z M43.5975,43.385 L42.1325,44.85 C41.8975,45.085 41.585,45.2125 41.25,45.2125 C40.915,45.2125 40.6,45.0825 40.3675,44.85 L19.27,23.7525 L22.5025,20.52 L43.6,41.6175 C44.0875,42.105 44.0875,42.8975 43.6,43.385 L43.5975,43.385 Z" id="Shape"></path>
                        <path d="M8.75,12.5 C8.06,12.5 7.5,11.94 7.5,11.25 C7.5,9.1825 5.8175,7.5 3.75,7.5 C3.06,7.5 2.5,6.94 2.5,6.25 C2.5,5.56 3.06,5 3.75,5 C5.8175,5 7.5,3.3175 7.5,1.25 C7.5,0.56 8.06,0 8.75,0 C9.44,0 10,0.56 10,1.25 C10,3.3175 11.6825,5 13.75,5 C14.44,5 15,5.56 15,6.25 C15,6.94 14.44,7.5 13.75,7.5 C11.6825,7.5 10,9.1825 10,11.25 C10,11.94 9.44,12.5 8.75,12.5 Z M7.495,6.25 C7.97,6.6075 8.3925,7.03 8.75,7.505 C9.1075,7.03 9.53,6.6075 10.005,6.25 C9.53,5.8925 9.1075,5.47 8.75,4.995 C8.3925,5.47 7.97,5.8925 7.495,6.25 Z" id="Shape"></path>
                        <path d="M8.75,37.5 C8.06,37.5 7.5,36.94 7.5,36.25 C7.5,34.1825 5.8175,32.5 3.75,32.5 C3.06,32.5 2.5,31.94 2.5,31.25 C2.5,30.56 3.06,30 3.75,30 C5.8175,30 7.5,28.3175 7.5,26.25 C7.5,25.56 8.06,25 8.75,25 C9.44,25 10,25.56 10,26.25 C10,28.3175 11.6825,30 13.75,30 C14.44,30 15,30.56 15,31.25 C15,31.94 14.44,32.5 13.75,32.5 C11.6825,32.5 10,34.1825 10,36.25 C10,36.94 9.44,37.5 8.75,37.5 Z M7.495,31.25 C7.97,31.6075 8.3925,32.03 8.75,32.505 C9.1075,32.03 9.53,31.6075 10.005,31.25 C9.53,30.8925 9.1075,30.47 8.75,29.995 C8.3925,30.47 7.97,30.8925 7.495,31.25 Z" id="Shape"></path>
                    </g>
                </g>
            </g>
        </g>
    </g>
</svg>