<?xml version="1.0" encoding="UTF-8"?>
<svg width="48px" height="50px" viewBox="0 0 48 50" version="1.1" xmlns="http://www.w3.org/2000/svg" xmlns:xlink="http://www.w3.org/1999/xlink">
    <title>img-7-12</title>
    <g id="Portfolio-Details" stroke="none" stroke-width="1" fill="none" fill-rule="evenodd">
        <g id="019-Portfolio-Details-(masthead---boxed---horizontal)" transform="translate(-1381.000000, -7372.000000)" fill="#555555" fill-rule="nonzero">
            <g id="section-FEATURES" transform="translate(400.000000, 7312.000000)">
                <g id="content" transform="translate(610.000000, 0.000000)">
                    <g id="item-2" transform="translate(280.000000, 0.000000)">
                        <g id="img-7-12" transform="translate(91.000000, 60.000000)">
                            <path d="M13.75,37.5 L3.75,37.5 C1.6825,37.5 0,35.8175 0,33.75 L0,3.75 C0,1.6825 1.6825,0 3.75,0 L38.75,0 C40.8175,0 42.5,1.6825 42.5,3.75 L42.5,21.25 C42.5,21.94 41.94,22.5 41.25,22.5 C40.56,22.5 40,21.94 40,21.25 L40,3.75 C40,3.06 39.44,2.5 38.75,2.5 L3.75,2.5 C3.06,2.5 2.5,3.06 2.5,3.75 L2.5,33.75 C2.5,34.44 3.06,35 3.75,35 L13.75,35 C14.44,35 15,35.56 15,36.25 C15,36.94 14.44,37.5 13.75,37.5 Z" id="Path"></path>
                            <path d="M32.5,50 C32.005,50 31.535,49.7025 31.34,49.215 L27.0975,38.61 L19.69,47.075 C19.3475,47.4675 18.7975,47.605 18.31,47.4225 C17.8225,47.24 17.5,46.7725 17.5,46.2525 L17.5,8.7525 C17.5,8.2575 17.7925,7.81 18.245,7.61 C18.6975,7.41 19.225,7.495 19.5925,7.8275 L47.0925,32.8275 C47.475,33.175 47.605,33.7225 47.4175,34.2025 C47.23,34.6825 46.7675,35.0025 46.2525,35.0025 L35.6,35.0025 L39.915,45.7875 C40.1725,46.4275 39.86,47.155 39.2175,47.4125 L32.9675,49.9125 C32.815,49.9725 32.6575,50.0025 32.5025,50.0025 L32.5,50 Z M27.5,35 C27.57,35 27.64,35.005 27.71,35.0175 C28.14,35.09 28.4975,35.3825 28.66,35.785 L33.195,47.125 L37.125,45.5525 L32.59,34.2125 C32.435,33.8275 32.4825,33.39 32.715,33.0475 C32.9475,32.705 33.335,32.4975 33.75,32.4975 L43.0175,32.4975 L20,11.5725 L20,42.92 L26.56,35.4225 C26.8,35.15 27.1425,34.995 27.5,34.995 L27.5,35 Z" id="Shape"></path>
                        </g>
                    </g>
                </g>
            </g>
        </g>
    </g>
</svg>