<?xml version="1.0" encoding="UTF-8"?>
<svg width="77px" height="50px" viewBox="0 0 77 50" version="1.1" xmlns="http://www.w3.org/2000/svg" xmlns:xlink="http://www.w3.org/1999/xlink">
    <title>img-7-13</title>
    <g id="Portfolio-Details" stroke="none" stroke-width="1" fill="none" fill-rule="evenodd">
        <g id="019-Portfolio-Details-(masthead---boxed---horizontal)" transform="translate(-1087.000000, -7618.000000)" fill="#555555" fill-rule="nonzero">
            <g id="section-FEATURES" transform="translate(400.000000, 7312.000000)">
                <g id="content" transform="translate(610.000000, 0.000000)">
                    <g id="item-1" transform="translate(0.000000, 246.000000)">
                        <g id="img-7-13" transform="translate(77.000000, 60.000000)">
                            <path d="M26.7692308,47.3192308 L21.8307692,35.7961538 C21.8269231,35.7923077 21.8269231,35.7846154 21.8230769,35.7807692 L15.2307692,20.3961538 C14.9269231,19.6884615 14.2307692,19.2307692 13.4615385,19.2307692 C12.6923077,19.2307692 11.9961538,19.6884615 11.6923077,20.3961538 L5.1,35.7807692 C5.09615385,35.7846154 5.09615385,35.7923077 5.09230769,35.7961538 L0.153846154,47.3192308 C-0.265384615,48.2961538 0.188461538,49.4269231 1.16538462,49.8461538 C2.14230769,50.2653846 3.27307692,49.8115385 3.69230769,48.8346154 L8.13846154,38.4615385 L18.7884615,38.4615385 L23.2346154,48.8346154 C23.5461538,49.5653846 24.2576923,50 25.0038462,50 C25.2576923,50 25.5153846,49.95 25.7615385,49.8423077 C26.7384615,49.4230769 27.1884615,48.2923077 26.7730769,47.3153846 L26.7692308,47.3192308 Z M9.78461538,34.6153846 L13.4615385,26.0346154 L17.1384615,34.6153846 L9.78461538,34.6153846 L9.78461538,34.6153846 Z" id="Shape"></path>
                            <path d="M76.7769231,47.3384615 L68.7653846,28.1076923 C68.7615385,28.1038462 68.7615385,28.0961538 68.7576923,28.0923077 L57.5461538,1.18461538 C57.2461538,0.469230769 56.5461538,0 55.7692308,0 C54.9923077,0 54.2923077,0.465384615 53.9923077,1.18461538 L42.7807692,28.0923077 C42.7769231,28.0961538 42.7769231,28.1038462 42.7730769,28.1076923 L34.7615385,47.3384615 C34.3538462,48.3192308 34.8153846,49.4461538 35.7961538,49.8538462 C36.7769231,50.2615385 37.9038462,49.8 38.3115385,48.8192308 L45.8307692,30.7730769 L65.7038462,30.7730769 L73.2230769,48.8192308 C73.5307692,49.5576923 74.2461538,50.0038462 75,50.0038462 C75.2461538,50.0038462 75.4961538,49.9576923 75.7384615,49.8538462 C76.7192308,49.4461538 77.1807692,48.3192308 76.7730769,47.3384615 L76.7769231,47.3384615 Z M47.4346154,26.9230769 L55.7692308,6.92307692 L64.1038462,26.9230769 L47.4384615,26.9230769 L47.4346154,26.9230769 Z" id="Shape"></path>
                        </g>
                    </g>
                </g>
            </g>
        </g>
    </g>
</svg>