<?xml version="1.0" encoding="UTF-8"?>
<svg width="50px" height="50px" viewBox="0 0 50 50" version="1.1" xmlns="http://www.w3.org/2000/svg" xmlns:xlink="http://www.w3.org/1999/xlink">
    <title>img-7-14</title>
    <g id="Portfolio-Details" stroke="none" stroke-width="1" fill="none" fill-rule="evenodd">
        <g id="019-Portfolio-Details-(masthead---boxed---horizontal)" transform="translate(-1380.000000, -7618.000000)" fill="#555555" fill-rule="nonzero">
            <g id="section-FEATURES" transform="translate(400.000000, 7312.000000)">
                <g id="content" transform="translate(610.000000, 0.000000)">
                    <g id="item-1" transform="translate(280.000000, 246.000000)">
                        <g id="img-7-14" transform="translate(90.000000, 60.000000)">
                            <path d="M25,50 C18.3210526,50 12.0447368,47.4 7.32105263,42.6789474 C2.59736842,37.9578947 0,31.6789474 0,25.0026316 C0,18.3236842 2.6,12.0473684 7.32105263,7.32368421 C12.0421053,2.6 18.3210526,3.55271368e-15 25,3.55271368e-15 C31.6789474,3.55271368e-15 37.9552632,2.6 42.6789474,7.32368421 C47.4026316,12.0473684 50,18.3236842 50,25.0026316 C50,31.6815789 47.4,37.9578947 42.6789474,42.6789474 C37.9578947,47.4 31.6789474,50 25,50 Z M25,2.63157895 C12.6657895,2.63157895 2.63157895,12.6657895 2.63157895,25 C2.63157895,37.3342105 12.6657895,47.3684211 25,47.3684211 C37.3342105,47.3684211 47.3684211,37.3342105 47.3684211,25 C47.3684211,12.6657895 37.3342105,2.63157895 25,2.63157895 Z" id="Shape"></path>
                            <path d="M17.1052632,18.4210526 C14.9289474,18.4210526 13.1578947,16.65 13.1578947,14.4736842 C13.1578947,12.2973684 14.9289474,10.5263158 17.1052632,10.5263158 C19.2815789,10.5263158 21.0526316,12.2973684 21.0526316,14.4736842 C21.0526316,16.65 19.2815789,18.4210526 17.1052632,18.4210526 Z M17.1052632,13.1578947 C16.3789474,13.1578947 15.7894737,13.7473684 15.7894737,14.4736842 C15.7894737,15.2 16.3789474,15.7894737 17.1052632,15.7894737 C17.8315789,15.7894737 18.4210526,15.2 18.4210526,14.4736842 C18.4210526,13.7473684 17.8315789,13.1578947 17.1052632,13.1578947 Z" id="Shape"></path>
                            <path d="M32.8947368,18.4210526 C30.7184211,18.4210526 28.9473684,16.65 28.9473684,14.4736842 C28.9473684,12.2973684 30.7184211,10.5263158 32.8947368,10.5263158 C35.0710526,10.5263158 36.8421053,12.2973684 36.8421053,14.4736842 C36.8421053,16.65 35.0710526,18.4210526 32.8947368,18.4210526 Z M32.8947368,13.1578947 C32.1684211,13.1578947 31.5789474,13.7473684 31.5789474,14.4736842 C31.5789474,15.2 32.1684211,15.7894737 32.8947368,15.7894737 C33.6210526,15.7894737 34.2105263,15.2 34.2105263,14.4736842 C34.2105263,13.7473684 33.6210526,13.1578947 32.8947368,13.1578947 Z" id="Shape"></path>
                            <path d="M25,42.1052632 C15.5684211,42.1052632 7.89473684,34.4315789 7.89473684,25 C7.89473684,24.2736842 8.48421053,23.6842105 9.21052632,23.6842105 C9.93684211,23.6842105 10.5263158,24.2736842 10.5263158,25 C10.5263158,32.9815789 17.0184211,39.4736842 25,39.4736842 C32.9815789,39.4736842 39.4736842,32.9815789 39.4736842,25 C39.4736842,24.2736842 40.0631579,23.6842105 40.7894737,23.6842105 C41.5157895,23.6842105 42.1052632,24.2736842 42.1052632,25 C42.1052632,34.4315789 34.4315789,42.1052632 25,42.1052632 Z" id="Path"></path>
                        </g>
                    </g>
                </g>
            </g>
        </g>
    </g>
</svg>